<svg width="24" height="25" viewBox="0 0 24 25" fill="none" xmlns="http://www.w3.org/2000/svg">
<path d="M17.6569 17.0032C16.7202 17.9398 14.7616 19.8985 13.4138 21.2462C12.6327 22.0273 11.3677 22.0277 10.5866 21.2466C9.26234 19.9224 7.34159 18.0016 6.34315 17.0032C3.21895 13.879 3.21895 8.81365 6.34315 5.68946C9.46734 2.56526 14.5327 2.56526 17.6569 5.68946C20.781 8.81365 20.781 13.879 17.6569 17.0032Z" stroke="#3FBFA0" stroke-width="2" stroke-linecap="round" stroke-linejoin="round"/>
<path d="M15 11.3463C15 13.0032 13.6569 14.3463 12 14.3463C10.3431 14.3463 9 13.0032 9 11.3463C9 9.68946 10.3431 8.34631 12 8.34631C13.6569 8.34631 15 9.68946 15 11.3463Z" stroke="#3FBFA0" stroke-width="2" stroke-linecap="round" stroke-linejoin="round"/>
</svg>
