<svg width="24" height="25" viewBox="0 0 24 25" fill="none" xmlns="http://www.w3.org/2000/svg">
<path d="M21 12.3462C21 17.3168 16.9706 21.3462 12 21.3462M21 12.3462C21 7.37563 16.9706 3.34619 12 3.34619M21 12.3462H3M12 21.3462C7.02944 21.3462 3 17.3168 3 12.3462M12 21.3462C13.6569 21.3462 15 17.3168 15 12.3462C15 7.37563 13.6569 3.34619 12 3.34619M12 21.3462C10.3431 21.3462 9 17.3168 9 12.3462C9 7.37563 10.3431 3.34619 12 3.34619M3 12.3462C3 7.37563 7.02944 3.34619 12 3.34619" stroke="#3FBFA0" stroke-width="2" stroke-linecap="round" stroke-linejoin="round"/>
</svg>
