<svg width="24" height="25" viewBox="0 0 24 25" fill="none" xmlns="http://www.w3.org/2000/svg">
<path d="M19 21.3463V5.34631C19 4.24174 18.1046 3.34631 17 3.34631H7C5.89543 3.34631 5 4.24174 5 5.34631V21.3463M19 21.3463L21 21.3463M19 21.3463H14M5 21.3463L3 21.3463M5 21.3463H10M9 7.34629H10M9 11.3463H10M14 7.34629H15M14 11.3463H15M10 21.3463V16.3463C10 15.794 10.4477 15.3463 11 15.3463H13C13.5523 15.3463 14 15.794 14 16.3463V21.3463M10 21.3463H14" stroke="#3FBFA0" stroke-width="2" stroke-linecap="round" stroke-linejoin="round"/>
</svg>
