<svg width="24" height="25" viewBox="0 0 24 25" fill="none" xmlns="http://www.w3.org/2000/svg">
<path d="M17 9.34631V7.34631C17 6.24174 16.1046 5.34631 15 5.34631H5C3.89543 5.34631 3 6.24174 3 7.34631V13.3463C3 14.4509 3.89543 15.3463 5 15.3463H7M9 19.3463H19C20.1046 19.3463 21 18.4509 21 17.3463V11.3463C21 10.2417 20.1046 9.34631 19 9.34631H9C7.89543 9.34631 7 10.2417 7 11.3463V17.3463C7 18.4509 7.89543 19.3463 9 19.3463ZM16 14.3463C16 15.4509 15.1046 16.3463 14 16.3463C12.8954 16.3463 12 15.4509 12 14.3463C12 13.2417 12.8954 12.3463 14 12.3463C15.1046 12.3463 16 13.2417 16 14.3463Z" stroke="#3FBFA0" stroke-width="2" stroke-linecap="round" stroke-linejoin="round"/>
</svg>
